<?xml version="1.0" standalone="no"?>
<!DOCTYPE svg PUBLIC "-//W3C//DTD SVG 20010904//EN"
 "http://www.w3.org/TR/2001/REC-SVG-20010904/DTD/svg10.dtd">
<svg version="1.0" xmlns="http://www.w3.org/2000/svg"
 width="69.000000pt" height="70.000000pt" viewBox="0 0 69.000000 70.000000"
 preserveAspectRatio="xMidYMid meet">

<g transform="translate(0.000000,70.000000) scale(0.100000,-0.100000)"
fill="#000000" stroke="none">
<path d="M248 637 c-26 -8 -65 -26 -88 -42 -39 -27 -41 -27 -60 -10 -11 10
-23 16 -26 12 -3 -3 -8 -33 -11 -67 l-6 -61 44 6 c24 4 55 8 68 11 l24 5 -22
23 c-20 22 -21 23 -3 39 61 55 190 74 268 38 103 -47 159 -134 158 -246 -2
-278 -373 -363 -500 -114 -27 54 -44 63 -44 24 0 -54 84 -150 164 -186 53 -24
169 -25 228 -2 70 27 124 77 159 148 57 116 40 239 -47 335 -74 82 -198 117
-306 87z"/>
<path d="M238 416 c-24 -18 -23 -35 2 -29 18 5 20 0 20 -46 0 -44 -3 -51 -20
-51 -11 0 -20 -7 -20 -15 0 -11 12 -15 50 -15 38 0 50 4 50 15 0 8 -7 15 -15
15 -12 0 -15 14 -15 70 0 60 -2 70 -17 70 -10 0 -26 -7 -35 -14z"/>
<path d="M360 415 c-18 -22 -23 -96 -8 -125 18 -33 60 -38 87 -11 23 23 29 97
11 132 -13 23 -72 26 -90 4z m61 -29 c16 -35 3 -98 -19 -94 -12 2 -18 15 -20
47 -5 70 17 97 39 47z"/>
</g>
</svg>
