<?xml version="1.0" standalone="no"?>
<!DOCTYPE svg PUBLIC "-//W3C//DTD SVG 20010904//EN"
 "http://www.w3.org/TR/2001/REC-SVG-20010904/DTD/svg10.dtd">
<svg version="1.0" xmlns="http://www.w3.org/2000/svg"
 width="69.000000pt" height="70.000000pt" viewBox="0 0 69.000000 70.000000"
 preserveAspectRatio="xMidYMid meet">

<g transform="translate(0.000000,70.000000) scale(0.100000,-0.100000)"
fill="#000000" stroke="none">
<path d="M260 641 c-36 -12 -92 -41 -112 -59 -16 -14 -20 -13 -36 1 -10 10
-23 17 -29 17 -10 0 -29 -118 -21 -126 6 -6 105 8 119 17 10 6 9 12 -6 29 -20
22 -20 22 0 37 73 56 184 69 265 32 173 -78 214 -292 81 -427 -126 -130 -345
-94 -421 67 -13 28 -27 51 -32 51 -17 0 -19 -28 -5 -62 59 -141 257 -211 402
-142 68 31 128 98 156 173 52 138 -18 304 -156 371 -51 25 -160 36 -205 21z"/>
<path d="M299 423 c-1 -5 -2 -24 -3 -43 -1 -31 2 -35 29 -40 22 -4 30 -11 30
-25 0 -16 -7 -20 -32 -20 -40 0 -44 -22 -7 -31 58 -15 106 45 69 86 -10 11
-29 20 -42 20 -28 0 -32 29 -3 31 39 3 43 4 48 17 2 8 -10 12 -42 12 -25 0
-46 -3 -47 -7z"/>
</g>
</svg>
