<?xml version="1.0" standalone="no"?>
<!DOCTYPE svg PUBLIC "-//W3C//DTD SVG 20010904//EN"
 "http://www.w3.org/TR/2001/REC-SVG-20010904/DTD/svg10.dtd">
<svg version="1.0" xmlns="http://www.w3.org/2000/svg"
 width="69.000000pt" height="70.000000pt" viewBox="0 0 69.000000 70.000000"
 preserveAspectRatio="xMidYMid meet">

<g transform="translate(0.000000,70.000000) scale(0.100000,-0.100000)"
fill="#000000" stroke="none">
<path d="M243 634 c-54 -20 -126 -84 -160 -141 -21 -36 -27 -63 -31 -123 -4
-69 -1 -85 22 -136 35 -77 77 -120 151 -155 108 -52 235 -33 325 48 42 38 90
114 90 143 0 27 -33 4 -54 -39 -46 -90 -130 -141 -236 -141 -182 0 -302 163
-251 342 42 148 228 227 368 155 61 -32 69 -42 49 -63 -9 -8 -16 -19 -16 -23
0 -10 50 -21 97 -21 32 0 34 2 29 28 -2 15 -8 44 -11 66 l-6 38 -25 -23 -24
-22 -22 20 c-45 41 -91 56 -173 60 -54 2 -94 -2 -122 -13z"/>
<path d="M299 433 c-10 -79 -9 -82 24 -85 27 -2 32 -7 32 -28 0 -22 -4 -25
-32 -24 -22 1 -33 -3 -33 -12 0 -10 12 -14 39 -14 40 0 71 25 71 57 0 20 -30
43 -56 43 -17 0 -24 5 -24 20 0 16 7 20 36 20 51 0 39 24 -14 28 -23 2 -42 0
-43 -5z"/>
</g>
</svg>
