<?xml version="1.0" standalone="no"?>
<!DOCTYPE svg PUBLIC "-//W3C//DTD SVG 20010904//EN"
 "http://www.w3.org/TR/2001/REC-SVG-20010904/DTD/svg10.dtd">
<svg version="1.0" xmlns="http://www.w3.org/2000/svg"
 width="69.000000pt" height="70.000000pt" viewBox="0 0 69.000000 70.000000"
 preserveAspectRatio="xMidYMid meet">

<g transform="translate(0.000000,70.000000) scale(0.100000,-0.100000)"
fill="#000000" stroke="none">
<path d="M241 630 c-73 -33 -118 -77 -152 -145 -40 -81 -43 -174 -9 -254 28
-65 112 -143 176 -165 95 -32 209 -12 291 50 42 32 93 109 93 141 0 36 -24 27
-44 -17 -56 -128 -222 -187 -351 -126 -58 27 -94 63 -127 126 -29 57 -31 166
-4 220 22 43 82 107 117 126 79 41 183 37 264 -10 l47 -28 -23 -24 c-12 -13
-20 -26 -17 -29 3 -3 34 -8 70 -12 l65 -6 -9 64 c-6 35 -12 66 -14 68 -2 2
-13 -4 -23 -13 -19 -17 -23 -17 -92 18 -62 31 -81 36 -143 36 -49 0 -84 -7
-115 -20z"/>
<path d="M252 424 c-27 -19 -29 -38 -2 -29 18 6 20 2 20 -45 0 -43 -3 -53 -20
-57 -37 -10 -20 -23 30 -23 28 0 50 5 50 10 0 6 -7 10 -15 10 -12 0 -15 15
-15 75 0 81 -6 88 -48 59z"/>
<path d="M377 422 c-38 -41 -34 -121 7 -148 20 -13 29 -13 48 -3 33 17 38 28
38 85 0 37 -5 55 -18 67 -24 22 -55 21 -75 -1z m59 -48 c7 -37 -8 -84 -26 -84
-24 0 -34 80 -14 112 13 20 34 5 40 -28z"/>
</g>
</svg>
