<?xml version="1.0" standalone="no"?>
<!DOCTYPE svg PUBLIC "-//W3C//DTD SVG 20010904//EN"
 "http://www.w3.org/TR/2001/REC-SVG-20010904/DTD/svg10.dtd">
<svg version="1.0" xmlns="http://www.w3.org/2000/svg"
 width="917.000000pt" height="896.000000pt" viewBox="0 0 917.000000 896.000000"
 preserveAspectRatio="xMidYMid meet">

<g transform="translate(0.000000,896.000000) scale(0.100000,-0.100000)"
fill="#000000" stroke="none">
<path d="M140 8871 c-56 -17 -71 -34 -86 -96 -1 -5 -5 -22 -9 -36 -11 -44 10
-41 34 3 16 30 19 44 11 52 -8 8 -9 6 -5 -6 4 -11 2 -18 -4 -18 -6 0 -11 9
-11 20 0 26 30 26 37 0 3 -11 9 -17 14 -14 5 3 9 -4 9 -15 0 -10 -4 -21 -8
-23 -5 -1 -6 -31 -2 -65 3 -35 3 -63 -1 -63 -9 0 -20 116 -12 137 5 14 3 15
-6 7 -17 -16 -4 -139 16 -160 16 -15 6 -19 -16 -5 -12 8 -16 28 -20 95 -1 15
-4 16 -16 6 -18 -15 -20 -80 -3 -80 6 0 4 -8 -6 -19 -15 -17 -16 -73 -14 -692
3 -656 4 -675 23 -701 22 -29 75 -58 106 -58 36 0 91 32 110 64 18 29 19 63
19 671 0 617 1 641 20 672 43 72 -6 67 790 73 555 4 720 8 737 18 32 18 53 64
53 113 0 55 -37 104 -88 119 -44 12 -1632 13 -1672 1z"/>
<path d="M7355 8873 c-80 -21 -119 -117 -80 -193 32 -62 7 -60 762 -60 422 0
702 -4 724 -10 19 -5 48 -24 65 -41 l29 -30 5 -658 c5 -592 7 -659 22 -682 19
-29 74 -59 110 -59 37 0 90 34 110 71 17 32 18 74 18 697 l0 664 -22 18 c-21
16 -25 17 -40 3 -15 -13 -18 -13 -36 5 -13 13 -18 28 -15 46 3 14 9 23 14 21
13 -9 59 71 59 102 0 20 -3 24 -9 14 -7 -11 -10 -10 -14 5 -4 16 -5 17 -6 2
-1 -19 -21 -26 -21 -8 0 17 5 25 13 22 4 -1 7 4 7 10 0 10 2 10 8 0 11 -16 42
-5 35 13 -2 8 -24 23 -47 35 -42 20 -55 20 -857 19 -448 -1 -823 -4 -834 -6z
m1685 -123 c0 -3 -9 -6 -20 -6 -13 0 -20 7 -20 18 0 16 3 16 20 6 11 -7 20
-15 20 -18z"/>
<path d="M9094 8760 c2 -20 -2 -34 -13 -40 -9 -5 -11 -9 -6 -10 20 0 30 15 32
48 1 17 -2 32 -7 32 -5 0 -8 -14 -6 -30z"/>
<path d="M9047 8669 c-30 -35 -34 -57 -12 -66 23 -8 54 24 47 49 -3 15 -1 19
7 14 6 -4 8 -13 5 -19 -5 -8 -2 -8 7 1 11 10 10 15 -7 32 -20 20 -20 20 -47
-11z m0 -44 c0 -8 -4 -12 -9 -9 -4 3 -8 9 -8 15 0 5 4 9 8 9 5 0 9 -7 9 -15z"/>
<path d="M9092 8621 c-11 -7 -11 -9 2 -14 10 -4 16 -1 16 8 0 17 -1 17 -18 6z"/>
<path d="M102 1770 c-60 -37 -62 -53 -62 -425 0 -320 1 -336 18 -331 10 4 25
0 34 -6 13 -11 15 -29 10 -105 -2 -51 -8 -90 -13 -87 -5 3 -12 -2 -15 -10 -3
-9 -12 -16 -20 -16 -12 0 -14 -53 -14 -317 0 -298 1 -320 20 -350 40 -66 -8
-63 917 -63 662 1 843 3 861 14 61 34 83 137 40 191 -44 56 -28 55 -785 55
-682 0 -699 1 -731 20 -63 39 -62 24 -62 722 0 610 -1 634 -20 665 -37 62
-116 81 -178 43z m23 -895 c0 -52 -3 -95 -7 -95 -9 0 -10 135 -2 168 4 12 7
22 8 22 1 0 1 -43 1 -95z"/>
<path d="M8923 1770 c-65 -39 -63 -14 -63 -710 0 -695 1 -681 -62 -720 -32
-19 -49 -20 -731 -20 -743 0 -737 0 -781 -48 -24 -27 -32 -103 -16 -142 7 -16
27 -39 45 -50 32 -20 48 -20 871 -20 651 0 845 3 864 13 13 7 35 28 47 46 23
34 23 38 23 343 l0 309 -25 23 c-13 13 -22 26 -18 30 4 4 8 30 9 58 1 40 -1
47 -8 32 -6 -10 -21 -29 -34 -42 -13 -13 -24 -28 -24 -35 0 -19 18 -42 26 -34
4 3 1 13 -6 22 -7 9 -10 18 -7 21 3 3 13 -9 22 -26 9 -18 12 -29 7 -26 -6 3
-13 0 -16 -6 -7 -17 -39 26 -41 55 -1 12 15 36 39 60 23 22 40 44 39 48 -2 5
0 8 5 8 28 -5 30 5 2 11 -27 7 -37 5 -47 -8 -7 -10 -12 -12 -13 -5 0 6 5 15
10 18 6 4 8 11 4 16 -9 15 -33 -22 -26 -41 4 -12 2 -12 -8 -3 -11 10 -10 17 4
38 9 14 21 23 26 20 6 -4 10 -1 10 4 0 6 5 11 11 11 6 0 9 -6 6 -14 -3 -8 1
-17 9 -20 28 -11 38 -6 18 9 -18 14 -18 14 4 8 l22 -5 0 341 c0 379 -2 394
-62 431 -42 25 -94 26 -135 0z"/>
<path d="M79 997 c8 -9 10 -21 6 -25 -4 -4 -10 -1 -12 6 -3 6 -12 12 -21 11
-10 0 -12 -3 -5 -5 9 -4 9 -11 1 -29 -6 -13 -7 -32 -3 -42 12 -27 12 -102 0
-107 -5 -3 -5 -5 2 -5 29 -2 57 79 33 94 -8 5 -8 11 0 20 6 7 8 20 4 29 -3 9
-1 16 5 16 17 0 13 26 -6 41 -16 13 -17 12 -4 -4z m-4 -77 c-3 -5 -12 -10 -18
-10 -7 0 -6 4 3 10 19 12 23 12 15 0z"/>
<path d="M9035 890 c-3 -5 -1 -10 4 -10 6 0 11 5 11 10 0 6 -2 10 -4 10 -3 0
-8 -4 -11 -10z"/>
<path d="M9096 855 c4 -8 8 -15 10 -15 2 0 4 7 4 15 0 8 -4 15 -10 15 -5 0 -7
-7 -4 -15z"/>
<path d="M9096 805 c4 -8 8 -15 10 -15 2 0 4 7 4 15 0 8 -4 15 -10 15 -5 0 -7
-7 -4 -15z"/>
</g>
</svg>
