<?xml version="1.0" standalone="no"?>
<!DOCTYPE svg PUBLIC "-//W3C//DTD SVG 20010904//EN"
 "http://www.w3.org/TR/2001/REC-SVG-20010904/DTD/svg10.dtd">
<svg version="1.0" xmlns="http://www.w3.org/2000/svg"
 width="916.000000pt" height="896.000000pt" viewBox="0 0 916.000000 896.000000"
 preserveAspectRatio="xMidYMid meet">

<g transform="translate(0.000000,896.000000) scale(0.100000,-0.100000)"
fill="#000000" stroke="none">
<path d="M6694 8391 c-69 -42 -64 24 -64 -911 1 -914 -2 -873 56 -911 28 -18
55 -19 810 -19 777 0 781 0 808 21 75 59 72 173 -6 216 -31 17 -79 18 -686 23
l-654 5 -34 37 -34 38 0 700 c0 773 2 753 -63 798 -41 27 -91 28 -133 3z"/>
<path d="M2345 8266 c-17 -7 -40 -26 -50 -42 -19 -28 -20 -55 -25 -687 l-5
-659 -37 -34 -38 -34 -706 0 -706 0 -40 -22 c-86 -48 -91 -155 -12 -217 27
-21 30 -21 877 -21 l849 0 39 39 39 39 0 784 c0 781 0 785 -21 812 -41 53
-103 69 -164 42z"/>
<path d="M856 2429 c-75 -59 -73 -162 5 -217 22 -15 84 -17 679 -22 710 -5
680 -3 714 -61 14 -24 16 -101 16 -726 0 -670 1 -700 20 -741 40 -88 156 -96
219 -16 21 27 21 30 21 873 0 819 -1 847 -19 875 -38 58 -2 55 -847 56 -777 0
-781 0 -808 -21z"/>
<path d="M6689 2433 c-62 -38 -59 4 -59 -851 0 -775 0 -779 21 -806 65 -83
185 -70 223 24 14 36 16 117 16 676 l0 636 39 39 39 39 703 0 c664 0 706 2
745 19 44 20 74 67 74 119 0 35 -36 92 -70 109 -19 10 -213 13 -865 13 -759
-1 -843 -2 -866 -17z"/>
</g>
</svg>
